{"asset":{"version":"2.0","generator":"gllib_cube"},"scene":0,"scenes":[{"nodes":[0]}],"nodes":[{"mesh":0}],"meshes":[{"primitives":[{"attributes":{"POSITION":0,"NORMAL":1,"TEXCOORD_0":2},"indices":3,"material":0}]}],"materials":[{"name":"default","pbrMetallicRoughness":{"baseColorFactor":[0.8,0.4,0.8,1.0]}}],"accessors":[{"bufferView":0,"byteOffset":0,"componentType":5126,"count":24,"type":"VEC3","max":[1,1,1],"min":[-1,-1,-1]},{"bufferView":0,"byteOffset":12,"componentType":5126,"count":24,"type":"VEC3","max":[1,1,1],"min":[-1,-1,-1]},{"bufferView":0,"byteOffset":24,"componentType":5126,"count":24,"type":"VEC2","max":[1,1],"min":[0,0]},{"bufferView":1,"componentType":5123,"count":36,"type":"SCALAR"}],"bufferViews":[{"buffer":0,"byteOffset":0,"byteLength":768,"byteStride":32,"target":34962},{"buffer":0,"byteOffset":768,"byteLength":72,"target":34963}],"buffers":[{"uri":"data:application/octet-stream;base64,","byteLength":840}]}
